<svg width="32" height="33" viewBox="0 0 32 33" fill="none" xmlns="http://www.w3.org/2000/svg">
<path d="M20.4898 17.571C23.8098 18.5416 26.7259 20.562 28.801 23.3294C30.8761 26.0968 31.9985 29.4622 32 32.9211H0C0.00070951 29.462 1.12281 26.0962 3.19803 23.3287C5.27325 20.5611 8.18974 18.5409 11.5102 17.571L16 24.3058L20.4898 17.571ZM24 8.92114C24 11.0429 23.1571 13.0777 21.6569 14.578C20.1566 16.0783 18.1217 16.9211 16 16.9211C13.8783 16.9211 11.8434 16.0783 10.3431 14.578C8.84285 13.0777 8 11.0429 8 8.92114C8 6.79941 8.84285 4.76458 10.3431 3.26429C11.8434 1.764 13.8783 0.921143 16 0.921143C18.1217 0.921143 20.1566 1.764 21.6569 3.26429C23.1571 4.76458 24 6.79941 24 8.92114Z" fill="#545353"/>
</svg>
